<svg xmlns="http://www.w3.org/2000/svg" width="20" height="20" viewBox="0 0 20 20" fill="none">
  <g clip-path="url(#clip0_6_88)">
    <path d="M2.5 5H5C5 3.67392 5.52678 2.40215 6.46447 1.46447C7.40215 0.526784 8.67392 0 10 0C11.3261 0 12.5979 0.526784 13.5355 1.46447C14.4732 2.40215 15 3.67392 15 5H17.5C18.163 5 18.7989 5.26339 19.2678 5.73223C19.7366 6.20107 20 6.83696 20 7.5V15.8333C19.9987 16.938 19.5593 17.997 18.7782 18.7782C17.997 19.5593 16.938 19.9987 15.8333 20H4.16667C3.062 19.9987 2.00296 19.5593 1.22185 18.7782C0.440735 17.997 0.0013237 16.938 0 15.8333V7.5C0 6.83696 0.263391 6.20107 0.732233 5.73223C1.20107 5.26339 1.83696 5 2.5 5ZM10 1.66667C9.11594 1.66667 8.2681 2.01786 7.64298 2.64298C7.01786 3.2681 6.66667 4.11594 6.66667 5H13.3333C13.3333 4.11594 12.9821 3.2681 12.357 2.64298C11.7319 2.01786 10.8841 1.66667 10 1.66667ZM1.66667 15.8333C1.66667 16.4964 1.93006 17.1323 2.3989 17.6011C2.86774 18.0699 3.50363 18.3333 4.16667 18.3333H15.8333C16.4964 18.3333 17.1323 18.0699 17.6011 17.6011C18.0699 17.1323 18.3333 16.4964 18.3333 15.8333V7.5C18.3333 7.27899 18.2455 7.06702 18.0893 6.91074C17.933 6.75446 17.721 6.66667 17.5 6.66667H15V8.33333C15 8.55435 14.9122 8.76631 14.7559 8.92259C14.5996 9.07887 14.3877 9.16667 14.1667 9.16667C13.9457 9.16667 13.7337 9.07887 13.5774 8.92259C13.4211 8.76631 13.3333 8.55435 13.3333 8.33333V6.66667H6.66667V8.33333C6.66667 8.55435 6.57887 8.76631 6.42259 8.92259C6.26631 9.07887 6.05435 9.16667 5.83333 9.16667C5.61232 9.16667 5.40036 9.07887 5.24408 8.92259C5.0878 8.76631 5 8.55435 5 8.33333V6.66667H2.5C2.27899 6.66667 2.06702 6.75446 1.91074 6.91074C1.75446 7.06702 1.66667 7.27899 1.66667 7.5V15.8333Z" fill="black"/>
  </g>
  <defs>
    <clipPath id="clip0_6_88">
      <rect width="20" height="20" fill="white" transform="matrix(-1 0 0 1 20 0)"/>
    </clipPath>
  </defs>
</svg>