<svg xmlns="http://www.w3.org/2000/svg" width="30" height="47" viewBox="0 0 30 47" fill="none">
  <path d="M7.22485 27.0499V15.2024" stroke="black" stroke-linecap="round" stroke-linejoin="round"/>
  <path d="M9.46928 16.5844L7.22483 13.8203L4.98038 16.5844" stroke="black" stroke-linecap="round" stroke-linejoin="round"/>
  <path d="M22.8638 22.6559V10.8084" stroke="black" stroke-linecap="round" stroke-linejoin="round"/>
  <path d="M25.1083 12.1906L22.8638 9.42642L20.6194 12.1906" stroke="black" stroke-linecap="round" stroke-linejoin="round"/>
  <path d="M14.6876 14.6991V2.85159" stroke="black" stroke-linecap="round" stroke-linejoin="round"/>
  <path d="M14.6876 21.8092V17.0717" stroke="black" stroke-linecap="round" stroke-linejoin="round"/>
  <path d="M16.932 4.23365L14.6876 1.46152L12.4432 4.23365" stroke="black" stroke-linecap="round" stroke-linejoin="round"/>
  <path d="M27.1433 34.1534C28.7101 27.4907 24.5608 20.8237 17.8755 19.2622C11.1903 17.7007 4.50078 21.836 2.93401 28.4987C1.36723 35.1614 5.51655 41.8284 12.2018 43.3899C18.887 44.9514 25.5765 40.816 27.1433 34.1534Z" fill="#B3DD62" stroke="black" stroke-linecap="round" stroke-linejoin="round"/>
  <path d="M14.1826 24.749V23.7504H15.9141V24.749C17.413 25.0526 18.1826 26.203 18.1826 28.0245V28.4479H16.1786V27.8887C16.1786 26.93 15.7938 26.5705 15.1205 26.5705C14.4472 26.5705 14.0624 26.93 14.0624 27.8887C14.0624 28.8473 14.4472 29.4864 15.874 30.6528C17.6054 32.0349 18.1986 33.0894 18.1986 34.6472C18.1986 36.4687 17.397 37.6351 15.9141 37.9467V38.9213H14.1826V37.9467C12.6596 37.6351 11.8901 36.4687 11.8901 34.6472V33.7285H13.8941V34.7831C13.8941 35.7417 14.3189 36.0852 14.9923 36.0852C15.6656 36.0852 16.0824 35.7417 16.0824 34.7831C16.0824 33.8244 15.6976 33.1294 14.2788 32.0189C12.5474 30.6608 11.9462 29.5823 11.9462 28.0245C11.9703 26.227 12.6997 25.0766 14.1826 24.749Z" fill="black"/>
</svg>